<svg width="300" height="300" viewBox="0 0 300 300" fill="none" xmlns="http://www.w3.org/2000/svg">
  <!-- Fries Box -->
  <rect x="100" y="100" width="100" height="150" fill="#FF5252" stroke="black" stroke-width="5" />

  <!-- Box Top -->
  <path d="M90,100 L150,70 L210,100" fill="#FF5252" stroke="black" stroke-width="5" />

  <!-- Fries -->
  <rect x="110" y="60" width="15" height="80" rx="2" fill="#FFDE59" stroke="black" stroke-width="3" />
  <rect x="130" y="50" width="15" height="90" rx="2" fill="#FFDE59" stroke="black" stroke-width="3" />
  <rect x="150" y="55" width="15" height="85" rx="2" fill="#FFDE59" stroke="black" stroke-width="3" />
  <rect x="170" y="45" width="15" height="95" rx="2" fill="#FFDE59" stroke="black" stroke-width="3" />

  <!-- Eyes -->
  <circle cx="125" cy="130" r="12" fill="white" stroke="black" stroke-width="3" />
  <circle cx="175" cy="130" r="12" fill="white" stroke="black" stroke-width="3" />
  <circle cx="125" cy="130" r="6" fill="black" />
  <circle cx="175" cy="130" r="6" fill="black" />

  <!-- Mouth -->
  <path d="M130,160 Q150,180 170,160" stroke="black" stroke-width="5" stroke-linecap="round" fill="none" />

  <!-- Arms -->
  <path d="M90,150 Q70,140 50,160" stroke="black" stroke-width="5" stroke-linecap="round" fill="none" />
  <circle cx="50" cy="160" r="10" fill="white" stroke="black" stroke-width="3" />

  <path d="M210,150 Q230,140 250,160" stroke="black" stroke-width="5" stroke-linecap="round" fill="none" />
  <circle cx="250" cy="160" r="10" fill="white" stroke="black" stroke-width="3" />

  <!-- Legs -->
  <path d="M120,250 Q110,270 90,280" stroke="black" stroke-width="5" stroke-linecap="round" fill="none" />
  <circle cx="90" cy="280" r="10" fill="#FFDE59" stroke="black" stroke-width="3" />

  <path d="M180,250 Q190,270 210,280" stroke="black" stroke-width="5" stroke-linecap="round" fill="none" />
  <circle cx="210" cy="280" r="10" fill="#FFDE59" stroke="black" stroke-width="3" />

  <!-- Ketchup Splash -->
  <path d="M70,90 Q90,70 110,90 Q130,110 150,90" stroke="#FF5252" stroke-width="8" stroke-linecap="round" fill="none" />
</svg>