<svg viewBox="22.5 37.5 540.0000000000001 472.49999999999994" fill="none" xmlns="http://www.w3.org/2000/svg" xmlns:xlink="http://www.w3.org/1999/xlink" xmlns:blush="http://design.blush" overflow="visible" width="540.0000000000001px" height="472.49999999999994px"><g id="Master/Spot Illustrations/Random Stuff" blush:has-customizable-colors="true" blush:viewBox="0 0 599.9999999999999 599.9999999999999" blush:i="0"><g id="Background" style="mix-blend-mode:soft-light" blush:component="Background" blush:defaultValue="Shock" blush:width="600" blush:height="600" blush:i="0.0" blush:value="Window" transform="scale(1 1)" blush:viewBox="27 39 534.0000000000001 465.00000000000006"><g id="Background/Window" blush:viewBox="27 39 534.0000000000001 465.00000000000006" blush:i="0.0.0"><g id="Group" blush:i="0.0.0.0"><path id="Shape" fill-rule="evenodd" clip-rule="evenodd" d="M73.9897 88.8879L73.4601 88.919C60.1401 89.709 47.4501 90.449 36.1101 90.799C37.8601 78.889 41.0901 67.869 47.4201 61.079C47.8301 60.589 48.3501 60.119 48.8301 59.689C64.5301 45.359 99.6301 44.859 127.83 44.459L128.07 44.4556C136.288 44.3371 143.395 44.2346 149.04 43.779C176.526 41.6159 204.485 41.1955 231.548 40.7885L232.18 40.779C244.51 40.599 257.27 40.409 269.82 40.059C309.94 38.929 348.87 40.659 381.66 42.499C397.454 43.3815 413.612 43.0842 429.257 42.7964L429.66 42.789L429.852 42.7854C449.402 42.4165 469.605 42.0353 489.46 43.949C493.41 44.329 497.76 44.399 502.36 44.399C517.64 44.529 535 44.679 544.21 58.119C550.06 66.649 552.1 78.299 552.94 90.299C535.84 89.329 506.38 87.879 492.84 88.519C430.669 91.3643 368.392 90.9805 306.26 87.369C265.288 85.0518 224.037 85.5578 184.14 86.0473L184 86.049C167 86.259 149.42 86.469 132.22 86.469C115.169 86.469 94.2549 87.6975 73.9897 88.8879ZM124.75 61.199C122.038 60.7941 119.304 61.7695 117.46 63.799H117.48C115.515 65.8632 115.026 68.9254 116.25 71.499C117.501 73.9831 120.059 75.536 122.84 75.499H123.3C125.787 75.3183 128.027 73.9328 129.3 71.789C130.581 69.8279 130.806 67.3592 129.9 65.199C128.997 63.0602 127.046 61.5451 124.75 61.199ZM89.2401 65.469C90.3582 64.1095 91.8887 63.1511 93.6001 62.739C95.9723 62.0187 98.5465 62.7542 100.18 64.619C101.891 66.7865 102.242 69.7297 101.09 72.239C100.038 74.8232 97.5865 76.5656 94.8001 76.709H94.2701C91.7414 76.8325 89.3673 75.4898 88.1701 73.259C86.9601 70.6785 87.3792 67.6278 89.2401 65.469ZM65.4901 64.399C62.8081 65.3706 60.9451 67.8246 60.7301 70.669C60.5953 73.4172 62.2054 75.9525 64.7501 76.999C65.614 77.3998 66.558 77.5982 67.5101 77.579C68.473 77.5768 69.4255 77.3795 70.3101 76.999C72.2502 76.2015 73.7593 74.6161 74.4601 72.639C75.3976 70.2413 74.8242 67.5159 73.0001 65.699C70.9545 63.8586 68.0353 63.3533 65.4901 64.399Z" fill="#EAF3F3" blush:i="0.0.0.0.0"/><path id="Path" d="M555.34 161.708C555.34 148.458 555.34 134.708 554.22 121.908C553.82 117.328 553.69 112.108 553.56 106.578C553.5 103.878 553.43 101.118 553.33 98.3385C536.47 97.3385 506.44 95.8785 493.2 96.5085C430.752 99.3638 368.198 98.9799 305.79 95.3585C265.05 93.0485 223.89 93.5585 184.08 94.0485C167.08 94.2585 149.58 94.4685 132.22 94.4685C115.22 94.4685 94.22 95.7085 73.93 96.9085C60.08 97.7185 46.93 98.4985 35.13 98.9085C34.34 107.258 34.08 115.678 33.86 123.108C33.7 128.588 33.56 133.328 33.24 137.178C25.89 225.518 29.49 309.178 33.3 397.648C34.04 414.648 34.79 432.248 35.46 449.728C35.54 451.728 35.53 454.178 35.52 456.728C35.46 469.048 35.39 485.908 44.09 493.398C53.32 501.348 67.86 502.398 82.2 502.398C117.63 502.398 151.91 502.778 185.06 503.148C211.58 503.448 239 503.748 267.15 503.868C277.67 503.908 287.87 503.928 297.75 503.928C363.93 503.928 416.85 502.928 466.3 500.878C468.6 500.788 471.3 500.718 474.19 500.648C494.95 500.118 526.32 499.328 538.78 486.848C549.86 475.758 551.07 449.678 551.96 430.638C552.18 425.838 552.39 421.308 552.73 417.768C559.27 350.198 560.23 280.668 555.84 192.328C555.34 182.298 555.34 171.828 555.34 161.708Z" fill="#EAF3F3" blush:i="0.0.0.0.1"/></g></g></g><g id="Random" blush:component="Random" blush:defaultValue="Element 38" blush:width="600" blush:height="600" blush:i="0.1" blush:value="Element 38" transform="scale(1 1)" blush:viewBox="213 213 174.00000000000014 174.00000000000014"><g id="Random/Element 38" blush:viewBox="213 213 174.00000000000014 174.00000000000014" blush:i="0.1.0"><g id="earth" blush:i="0.1.0.0"><g id="stickers_expanded" blush:i="0.1.0.0.0"><path id="Path" d="M292.43 225C293.35 224.18 294.43 223.38 295.43 222.6C297.74 220.83 300.13 219 301.49 216.68C302.029 215.747 302.417 214.734 302.64 213.68C299.198 213.578 295.752 213.665 292.32 213.94C274.124 215.353 256.893 222.687 243.26 234.82C243.369 234.956 243.49 235.083 243.62 235.2C250.13 241.45 256.49 237.61 261.62 234.53C262.62 233.92 263.62 233.34 264.52 232.84C265.458 233.624 266.524 234.243 267.67 234.67C267.95 238.59 268.97 245.67 272.77 246.83C273.117 246.936 273.477 246.99 273.84 246.99C276.57 246.99 278.84 243.93 279.62 242.84C284.11 236.71 284.2 234.97 282.71 228C282.585 227.433 282.421 226.875 282.22 226.33C282.046 225.883 281.915 225.421 281.83 224.95C286.14 227.2 289.88 227.22 292.43 225Z" fill="#C1EAF7" blush:i="0.1.0.0.0.0"/><path id="Path_2" d="M364.999 356.93C363.719 355.872 362.159 355.208 360.509 355.02C358.189 354.6 355.089 355.75 351.819 356.96C347.979 358.38 343.639 359.96 342.529 358.09C342.227 357.561 341.632 357.271 341.029 357.36C335.729 358.1 332.279 361.55 329.459 364.72C328.799 365.45 328.259 366.17 327.729 366.86C326.689 368.425 325.325 369.748 323.729 370.74C320.519 372.62 320.059 372.41 318.359 371.65C317.135 371.071 315.855 370.619 314.539 370.3C307.079 368.5 295.899 376.53 294.239 383.12C294.029 383.96 293.849 384.92 293.699 385.95C297.919 386.365 302.163 386.485 306.399 386.31C325.939 385.46 347.129 374.45 361.199 360.83C362.546 359.563 363.813 358.263 364.999 356.93Z" fill="#C1EAF7" blush:i="0.1.0.0.0.1"/><path id="Path_3" d="M219.24 325.749C226.95 356.569 253.05 377.639 282.76 384.209C282.66 380.309 280.7 374.329 279.86 373.209C278.49 371.449 277.98 368.649 277.48 365.939C277.196 364.047 276.734 362.185 276.1 360.379C275.641 359.255 274.961 358.235 274.1 357.379C273.616 356.906 273.205 356.363 272.88 355.769C272.404 354.412 272.29 352.954 272.55 351.539C272.685 350.373 272.685 349.195 272.55 348.029C272.392 347.139 272.08 346.283 271.63 345.499C271.327 345.01 271.123 344.467 271.03 343.899C271.161 343.079 271.562 342.326 272.17 341.759C272.849 340.998 273.378 340.116 273.73 339.159C274.42 336.969 273.82 334.449 273.35 332.429L273.22 331.899C273.067 331.145 272.977 330.379 272.95 329.609C272.92 328.906 272.853 328.205 272.75 327.509C271.97 322.569 265.59 321.679 261.75 322.279C260.284 322.605 258.914 323.269 257.75 324.219C257.076 324.75 256.332 325.188 255.54 325.519C254.488 325.835 253.384 325.944 252.29 325.839C250.37 325.779 248.03 325.709 246.29 328.259C245.62 328.069 244.99 327.389 244.05 326.259C243.75 325.889 243.46 325.529 243.15 325.209C241.25 323.139 240.53 323.009 238.08 322.869H237.68C234.01 322.649 232.41 320.789 229.9 317.519C229.496 317.026 229.051 316.568 228.57 316.149C227.91 315.539 226.99 314.689 226.99 314.149C226.99 313.609 226.99 313.669 228.29 313.359C228.689 313.274 229.083 313.167 229.47 313.039C229.98 312.859 230.47 312.679 230.95 312.489C232.95 311.719 234.13 311.309 235.55 311.899C237.4 312.659 237.69 312.749 239.18 312.539L240.1 312.429C241.443 312.383 242.783 312.59 244.05 313.039C244.915 313.303 245.797 313.506 246.69 313.649C247.365 313.774 248.032 313.934 248.69 314.129C249.645 314.427 250.626 314.635 251.62 314.749C252.592 314.752 253.559 314.61 254.49 314.329C254.9 314.239 255.28 314.139 255.6 314.089C256.463 313.99 257.332 313.947 258.2 313.959C259.827 314.021 261.453 313.829 263.02 313.389C265.244 312.643 266.954 310.847 267.59 308.589C268.78 304.659 267.17 299.519 265.05 296.689C264.79 296.336 264.54 296.003 264.3 295.689C263.638 294.977 263.143 294.127 262.85 293.199C262.458 291.979 262.588 290.65 263.21 289.529C263.38 289.079 263.57 288.589 263.76 288.029C264.48 285.849 263.76 284.029 263.16 282.359C262.65 281.009 262.21 279.849 262.56 278.619C263.058 277.23 263.73 275.91 264.56 274.689C266.12 272.159 267.89 269.299 267.39 266.319C266.61 261.649 260.78 259.229 258.31 258.409C257.64 258.179 256.97 257.979 256.31 257.769C254.646 257.303 253.021 256.708 251.45 255.989C251.15 255.849 250.82 255.709 250.45 255.579C249.889 255.386 249.358 255.117 248.87 254.779C248.688 254.586 248.518 254.382 248.36 254.169C247.901 253.419 247.224 252.826 246.42 252.469C245.554 252.219 244.63 252.261 243.79 252.589C243.543 252.671 243.289 252.728 243.03 252.759C241.884 252.568 240.792 252.131 239.83 251.479C239.7 251.389 239.35 251.089 239.09 250.859C238.528 250.266 237.846 249.799 237.09 249.489C236.31 249.279 235.508 249.165 234.7 249.149C233.918 249.192 233.146 248.966 232.51 248.509L232.39 248.429L231.3 247.699C229.69 249.937 228.224 252.275 226.91 254.699C214.84 277.289 213.18 301.509 219.24 325.749Z" fill="#59D89E" blush:i="0.1.0.0.0.2"/><path id="Path_4" d="M365.001 308.2C365.171 306.68 365.341 305.1 365.601 303.61C365.691 303.07 365.801 302.53 365.901 302C366.299 300.254 366.517 298.471 366.551 296.68C366.447 294.078 366.085 291.492 365.471 288.96C365.241 287.86 365.001 286.72 364.821 285.61C364.031 280.89 363.341 277.82 359.201 274.37C357.524 272.926 355.411 272.085 353.201 271.98C352.244 271.879 351.295 271.712 350.361 271.48C346.741 270.56 346.201 269.69 346.141 269.48C346.266 268.864 346.493 268.273 346.811 267.73C347.693 267.568 348.585 267.465 349.481 267.42C350.271 267.36 351.091 267.29 351.901 267.16C353.884 266.704 355.934 266.612 357.951 266.89C360.261 267.37 361.951 267.02 363.031 265.89C365.031 263.68 363.771 259.61 362.641 256.02C362.461 255.41 362.271 254.82 362.121 254.29C363.177 254.818 364.132 255.529 364.941 256.39L365.441 256.86C366.874 258.158 368.584 259.112 370.441 259.65L370.611 259.71C372.461 260.392 374.364 260.92 376.301 261.29C366.074 239.285 346.627 222.939 323.191 216.65C323.186 216.707 323.186 216.764 323.191 216.82C323.19 217.258 323.214 217.695 323.261 218.13C323.319 218.615 323.319 219.105 323.261 219.59C323.085 219.937 322.852 220.252 322.571 220.52C322.01 221.078 321.565 221.74 321.261 222.47L320.971 223.29C320.311 225.15 320.091 225.78 318.331 226.38C317.211 226.726 316.068 226.993 314.911 227.18C313.115 227.43 311.362 227.924 309.701 228.65C306.776 230.157 303.651 231.238 300.421 231.86C299.792 231.991 299.32 232.512 299.251 233.15C299.091 234.54 297.661 235.97 296.251 237.34C295.044 238.418 294.03 239.693 293.251 241.11C292.251 243.28 291.251 247.5 292.771 250.23C293.501 251.586 294.866 252.481 296.401 252.61C296.907 252.672 297.41 252.468 297.731 252.07C298.211 251.446 298.629 250.776 298.981 250.07C299.324 249.361 299.744 248.69 300.231 248.07C300.904 248.055 301.577 248.129 302.231 248.29C301.931 251.29 301.571 253.69 299.231 255.5C298.574 255.917 297.833 256.18 297.061 256.27C295.224 256.427 293.561 257.419 292.551 258.96C290.811 261.79 291.471 265.6 291.841 267.11C291.911 267.42 291.981 267.7 292.041 267.97C292.312 269.788 293.164 271.468 294.471 272.76C295.95 274.335 297.746 275.579 299.741 276.41C300.332 276.626 300.994 276.451 301.401 275.97C302.249 275.1 303.271 274.418 304.401 273.97C305.373 273.542 306.298 273.012 307.161 272.39C308.693 271.015 309.952 269.363 310.871 267.52L311.171 267.01C312.288 264.93 312.725 262.552 312.421 260.21C312.421 259.82 312.341 259.43 312.281 259.06C312.501 259.26 312.761 259.52 312.981 259.73C315.051 261.73 316.781 263.32 318.451 263.19C319.131 263.149 319.759 262.813 320.171 262.27C321.491 260.54 321.081 258.39 320.721 256.5C320.661 256.19 320.601 255.89 320.551 255.6L320.651 255.73C321.231 256.507 321.87 257.239 322.561 257.92C322.942 258.347 323.277 258.813 323.561 259.31C324.082 260.256 324.793 261.084 325.651 261.74C326.702 262.363 327.96 262.536 329.141 262.22C330.676 261.924 332.041 261.055 332.961 259.79C333.385 258.988 333.682 258.124 333.841 257.23C333.972 256.652 334.135 256.081 334.331 255.52C335.063 256.211 335.666 257.027 336.111 257.93C336.671 259.51 335.851 261.23 333.531 263.32C333.231 263.6 332.901 263.91 332.531 264.24C331.371 265.36 329.921 266.76 328.741 266.95C328.263 266.972 327.785 266.925 327.321 266.81C326.034 266.416 324.642 266.556 323.461 267.2C322.818 267.628 322.248 268.154 321.771 268.76C321.476 269.13 321.141 269.466 320.771 269.76C318.631 271.22 316.391 272.54 314.021 273.94L312.931 274.59V274.59C311.561 273.7 309.841 274.91 308.471 275.88L308.091 276.14C307.601 276.41 307.091 276.64 306.561 276.88C304.727 277.512 303.143 278.714 302.041 280.31C300.981 282.05 301.091 284.25 301.181 286.19C301.181 286.69 301.181 287.19 301.181 287.63C301.181 290.88 302.781 295.04 304.371 297.71C307.071 302.26 310.781 304.48 315.081 304.14C316.743 303.949 318.381 303.591 319.971 303.07C321.77 302.411 323.675 302.089 325.591 302.12C327.391 302.31 327.841 302.83 329.061 304.21L329.431 304.64C330.009 305.257 330.631 305.832 331.291 306.36C332.054 306.943 332.727 307.633 333.291 308.41C334.041 309.62 333.811 310.74 333.351 312.64C333.172 313.326 333.028 314.02 332.921 314.72C332.715 316.697 333.004 318.693 333.761 320.53C333.881 320.93 334.021 321.33 334.141 321.75C334.898 324.855 335.234 328.047 335.141 331.24V331.68C335.201 334.68 335.261 337.54 337.081 340.37C337.261 340.64 337.481 341.03 337.731 341.47C339.081 343.82 340.131 345.53 341.431 346.07C341.979 346.311 342.572 346.437 343.171 346.44C346.891 346.44 349.171 341.12 350.631 337.77C350.972 336.91 351.366 336.072 351.811 335.26C352.981 333.42 354.311 331.65 355.711 329.77C359.101 325.24 362.611 320.56 363.911 314.82C364.395 312.635 364.759 310.425 365.001 308.2V308.2Z" fill="#59D89E" blush:i="0.1.0.0.0.3"/><path id="Path_5" d="M371.74 312.94C369.47 315.32 366.51 324.5 366.18 325.54C366.123 325.714 366.099 325.897 366.11 326.08C366.11 326.22 366.11 326.4 366.11 326.62C365.97 327.94 365.6 331.47 369.44 332.62C369.708 332.709 369.988 332.753 370.27 332.75C370.921 332.739 371.551 332.522 372.07 332.13C375.42 329.73 377.43 319.56 377.52 316.47V316.12C377.59 313.72 377.65 311.65 376 310.96C374.48 310.37 373 311.63 371.74 312.94Z" fill="#59D89E" blush:i="0.1.0.0.0.4"/><path id="Shape" fill-rule="evenodd" clip-rule="evenodd" d="M370.61 259.72C372.46 260.401 374.363 260.93 376.3 261.3C381.073 271.394 383.766 282.344 384.22 293.5C385.35 321.75 379.7 341.08 365.22 357.08C363.94 356.022 362.38 355.358 360.73 355.17C358.415 354.751 355.324 355.895 352.062 357.102L352.04 357.11L352.015 357.12C348.181 358.537 343.858 360.136 342.75 358.24C342.448 357.711 341.853 357.422 341.25 357.51C335.95 358.25 332.5 361.7 329.68 364.87C329.088 365.525 328.593 366.171 328.115 366.795C328.06 366.867 328.005 366.939 327.95 367.01C326.91 368.575 325.546 369.898 323.95 370.89C320.773 372.781 320.29 372.565 318.631 371.823L318.58 371.8C317.356 371.222 316.076 370.769 314.76 370.45C307.3 368.65 296.12 376.68 294.46 383.27C294.25 384.1 294.07 385.1 293.92 386.1C290.222 385.738 286.549 385.157 282.92 384.36C282.82 380.43 280.86 374.45 280.02 373.36C278.661 371.627 278.155 368.885 277.663 366.214L277.64 366.09C277.356 364.197 276.894 362.336 276.26 360.53C275.801 359.406 275.121 358.386 274.26 357.53C273.776 357.057 273.365 356.514 273.04 355.92C272.564 354.563 272.45 353.105 272.71 351.69C272.845 350.524 272.845 349.346 272.71 348.18C272.551 347.29 272.24 346.434 271.79 345.65C271.487 345.161 271.283 344.618 271.19 344.05C271.321 343.23 271.722 342.477 272.33 341.91C273.009 341.149 273.538 340.267 273.89 339.31C274.578 337.126 273.983 334.593 273.514 332.596L273.51 332.58L273.38 332.05C273.227 331.296 273.137 330.53 273.11 329.76C273.08 329.057 273.013 328.356 272.91 327.66C272.12 322.72 265.74 321.83 261.91 322.43C260.443 322.756 259.074 323.42 257.91 324.37C257.235 324.901 256.492 325.339 255.7 325.67C254.648 325.986 253.544 326.095 252.45 325.99C250.52 325.93 248.18 325.86 246.45 328.41C245.78 328.23 245.15 327.55 244.21 326.41L244.179 326.372C243.89 326.015 243.609 325.669 243.31 325.36C241.41 323.29 240.69 323.16 238.24 323.02H237.84C234.17 322.8 232.57 320.94 230.06 317.67C229.656 317.177 229.211 316.719 228.73 316.3C228.07 315.67 227.16 314.73 227.15 314.3C227.14 313.87 227.14 313.82 228.45 313.51C228.849 313.425 229.243 313.318 229.63 313.19C229.809 313.123 229.993 313.056 230.178 312.989C230.491 312.875 230.809 312.759 231.11 312.64C233.09 311.87 234.29 311.46 235.71 312.05C237.56 312.81 237.85 312.9 239.34 312.69L240.26 312.58C241.603 312.534 242.943 312.741 244.21 313.19C245.075 313.453 245.957 313.657 246.85 313.8C247.525 313.925 248.192 314.085 248.85 314.28C249.805 314.578 250.786 314.786 251.78 314.9C252.752 314.903 253.719 314.761 254.65 314.48C254.781 314.451 254.91 314.421 255.034 314.393C255.297 314.331 255.543 314.274 255.76 314.24C256.623 314.141 257.491 314.098 258.36 314.11C259.987 314.172 261.613 313.98 263.18 313.54C265.403 312.794 267.114 310.997 267.75 308.74C268.94 304.84 267.33 299.67 265.21 296.84C264.95 296.467 264.7 296.133 264.46 295.84C263.798 295.128 263.302 294.277 263.01 293.35C262.618 292.13 262.748 290.801 263.37 289.68C263.396 289.611 263.423 289.541 263.45 289.47C263.598 289.078 263.759 288.654 263.92 288.18C264.64 286.001 263.941 284.152 263.321 282.512L263.32 282.51L263.317 282.501C262.808 281.155 262.371 279.997 262.72 278.77C263.218 277.381 263.89 276.06 264.72 274.84L264.757 274.78C266.308 272.265 268.046 269.446 267.55 266.47C266.77 261.8 260.94 259.38 258.47 258.56C258.046 258.417 257.627 258.285 257.214 258.156C256.963 258.077 256.715 257.999 256.47 257.92C254.806 257.454 253.181 256.859 251.61 256.14C251.51 256.099 251.411 256.058 251.313 256.017C251.076 255.919 250.843 255.822 250.61 255.73C250.049 255.537 249.517 255.268 249.03 254.93C248.848 254.737 248.678 254.533 248.52 254.32C248.061 253.57 247.384 252.977 246.58 252.62C245.714 252.37 244.79 252.412 243.95 252.74C243.703 252.822 243.448 252.879 243.19 252.91C242.044 252.719 240.952 252.282 239.99 251.63C239.86 251.54 239.51 251.24 239.25 251.01C238.688 250.417 238.006 249.95 237.25 249.64C236.47 249.43 235.668 249.315 234.86 249.3C234.078 249.343 233.306 249.117 232.67 248.66L232.55 248.58L231.46 247.85C234.906 243.092 238.87 238.732 243.28 234.85C243.39 234.986 243.51 235.113 243.64 235.23C250.18 241.48 256.54 237.64 261.64 234.56C262.64 233.95 263.6 233.37 264.54 232.87C265.479 233.654 266.544 234.273 267.69 234.7C267.97 238.62 268.99 245.72 272.79 246.86C273.137 246.966 273.497 247.02 273.86 247.02C276.59 247.02 278.84 243.96 279.64 242.87C284.13 236.74 284.22 235.03 282.73 228.03C282.605 227.463 282.441 226.905 282.24 226.36C282.066 225.914 281.935 225.452 281.85 224.98C286.21 227.22 289.95 227.24 292.5 224.98C293.261 224.316 294.102 223.665 294.925 223.027C295.118 222.877 295.31 222.728 295.5 222.58L295.507 222.575C297.815 220.806 300.201 218.978 301.56 216.66C302.099 215.727 302.488 214.715 302.71 213.66C309.661 213.846 316.565 214.853 323.28 216.66C323.275 216.717 323.275 216.774 323.28 216.83C323.28 217.268 323.303 217.705 323.35 218.14C323.409 218.625 323.409 219.115 323.35 219.6C323.175 219.947 322.941 220.262 322.66 220.53C322.099 221.087 321.654 221.75 321.35 222.48L321.06 223.3C320.42 225.16 320.18 225.79 318.42 226.39C317.3 226.736 316.157 227.003 315 227.19C313.204 227.439 311.451 227.934 309.79 228.66C306.865 230.167 303.74 231.248 300.51 231.87C299.881 232.001 299.409 232.522 299.34 233.16C299.15 234.55 297.72 235.98 296.34 237.35C295.134 238.428 294.119 239.703 293.34 241.12C292.31 243.24 291.34 247.51 292.86 250.24C293.591 251.595 294.956 252.491 296.49 252.62C296.997 252.682 297.499 252.477 297.82 252.08C298.3 251.455 298.719 250.786 299.07 250.08C299.414 249.371 299.833 248.7 300.32 248.08C300.993 248.065 301.666 248.139 302.32 248.3C302.01 251.31 301.65 253.7 299.32 255.51C298.664 255.926 297.922 256.19 297.15 256.28C295.313 256.436 293.65 257.428 292.64 258.97C290.93 261.8 291.56 265.61 291.93 267.12C291.964 267.27 291.998 267.412 292.03 267.55C292.065 267.698 292.099 267.84 292.13 267.98C292.401 269.798 293.254 271.478 294.56 272.77C296.039 274.345 297.835 275.589 299.83 276.42C300.421 276.636 301.084 276.46 301.49 275.98C302.338 275.11 303.36 274.428 304.49 273.98C305.463 273.551 306.388 273.022 307.25 272.4C308.782 271.025 310.041 269.373 310.96 267.53L311.26 267.02C312.378 264.94 312.815 262.562 312.51 260.22C312.48 259.83 312.43 259.44 312.37 259.07C312.514 259.201 312.675 259.358 312.831 259.509C312.913 259.589 312.994 259.668 313.07 259.74C315.14 261.78 316.87 263.33 318.54 263.2C319.22 263.158 319.848 262.823 320.26 262.28C321.574 260.519 321.174 258.421 320.815 256.538L320.81 256.51C320.798 256.45 320.787 256.39 320.775 256.33C320.727 256.084 320.68 255.844 320.64 255.61L320.74 255.74C321.321 256.517 321.959 257.249 322.65 257.93C323.032 258.357 323.367 258.823 323.65 259.32C324.171 260.266 324.883 261.094 325.74 261.75C326.792 262.372 328.049 262.545 329.23 262.23C330.765 261.933 332.131 261.065 333.05 259.8C333.474 258.998 333.771 258.134 333.93 257.24C334.061 256.661 334.224 256.09 334.42 255.53C335.152 256.221 335.755 257.037 336.2 257.94C336.76 259.52 335.94 261.24 333.62 263.33C333.28 263.61 332.95 263.92 332.62 264.25C331.46 265.37 330.01 266.77 328.83 266.96C328.352 266.982 327.874 266.934 327.41 266.82C326.123 266.425 324.732 266.566 323.55 267.21C322.908 267.637 322.337 268.164 321.86 268.77C321.565 269.14 321.23 269.475 320.86 269.77C318.754 271.207 316.551 272.508 314.223 273.883L314.11 273.95L313.02 274.6C311.65 273.71 309.93 274.89 308.56 275.89L308.18 276.15C307.65 276.42 307.19 276.65 306.65 276.89C304.816 277.522 303.232 278.724 302.13 280.32C301.077 282.048 301.179 284.23 301.268 286.16L301.27 286.2V287.64C301.26 290.89 302.87 295.05 304.46 297.72C307.17 302.27 310.87 304.49 315.17 304.15C316.832 303.959 318.47 303.601 320.06 303.08C321.859 302.42 323.764 302.098 325.68 302.13C327.469 302.319 327.925 302.834 329.128 304.196L329.15 304.22L329.52 304.65C330.098 305.267 330.72 305.842 331.38 306.37C332.143 306.952 332.817 307.643 333.38 308.42C334.13 309.65 333.9 310.75 333.44 312.65C333.261 313.336 333.118 314.03 333.01 314.73C332.805 316.706 333.093 318.703 333.85 320.54C333.902 320.712 333.957 320.885 334.013 321.059C334.087 321.289 334.162 321.521 334.23 321.76C334.987 324.864 335.323 328.056 335.23 331.25V331.69C335.29 334.7 335.35 337.55 337.17 340.38C337.34 340.636 337.546 340.998 337.78 341.409L337.82 341.48C339.17 343.83 340.22 345.54 341.52 346.08C342.069 346.321 342.661 346.447 343.26 346.45C346.967 346.45 349.254 341.166 350.705 337.814L350.72 337.78C351.061 336.92 351.455 336.082 351.9 335.27C353.008 333.528 354.259 331.849 355.577 330.08L355.8 329.78L355.826 329.745C359.208 325.226 362.703 320.555 364 314.83C364.455 312.644 364.788 310.434 365 308.21C365.011 308.114 365.021 308.018 365.032 307.922C365.192 306.491 365.356 305.016 365.6 303.62C365.664 303.236 365.738 302.851 365.812 302.47C365.842 302.316 365.871 302.163 365.9 302.01C366.299 300.264 366.517 298.481 366.55 296.69C366.446 294.087 366.085 291.501 365.47 288.97L365.449 288.872C365.226 287.802 364.995 286.697 364.82 285.62C364.03 280.9 363.34 277.83 359.2 274.38C357.523 272.936 355.411 272.094 353.2 271.99C352.243 271.888 351.294 271.721 350.36 271.49C346.74 270.49 346.2 269.65 346.14 269.49C346.266 268.874 346.492 268.283 346.81 267.74C347.692 267.578 348.584 267.475 349.48 267.43C350.27 267.37 351.09 267.3 351.9 267.17C353.883 266.713 355.934 266.622 357.95 266.9C360.26 267.42 361.97 267.07 363.03 265.9C365.04 263.69 363.77 259.62 362.64 256.03C362.563 255.769 362.484 255.512 362.408 255.262C362.305 254.927 362.206 254.604 362.12 254.3C363.177 254.828 364.131 255.539 364.94 256.4L365.44 256.87C366.873 258.168 368.583 259.122 370.44 259.66L370.61 259.72ZM377.49 316.5V316.15C377.56 313.75 377.62 311.68 375.94 311.02C374.45 310.4 372.97 311.66 371.71 312.97C369.528 315.258 366.709 323.865 366.2 325.417C366.18 325.48 366.163 325.531 366.15 325.57C366.093 325.744 366.069 325.927 366.08 326.11V326.65C365.94 327.94 365.57 331.47 369.41 332.65C369.678 332.739 369.958 332.783 370.24 332.78C370.891 332.769 371.521 332.552 372.04 332.16C375.39 329.76 377.4 319.59 377.49 316.5Z" fill="#4565DB" blush:i="0.1.0.0.0.5"/></g></g></g></g></g></svg>