<svg width="32" height="32" viewBox="0 0 32 32" fill="none" xmlns="http://www.w3.org/2000/svg">
    <rect width="32" height="32" rx="4" fill="black" />
    <path
        d="M8 12C8 10.8954 8.89543 10 10 10H14C15.1046 10 16 10.8954 16 12V20C16 21.1046 15.1046 22 14 22H10C8.89543 22 8 21.1046 8 20V12Z"
        fill="#FF5252" />
    <path
        d="M18 12C18 10.8954 18.8954 10 20 10H22C23.1046 10 24 10.8954 24 12V20C24 21.1046 23.1046 22 22 22H20C18.8954 22 18 21.1046 18 20V12Z"
        fill="#FFDE59" />
    <path d="M8 16H24" stroke="white" stroke-width="2" stroke-linecap="round" />
</svg>